<?xml version="1.0" encoding="utf-8"?>
<!DOCTYPE svg PUBLIC "-//W3C//DTD SVG 1.1//EN" "http://www.w3.org/Graphics/SVG/1.1/DTD/svg11.dtd">
<svg version="1.1" id="Ebene_1" xmlns="http://www.w3.org/2000/svg" xmlns:xlink="http://www.w3.org/1999/xlink" x="0px" y="0px"
	 width="500px" height="100px" viewBox="0 0 500 100" enable-background="new 0 0 500 100" xml:space="preserve">
<path fill="#00acee" d="M500,77.367c0,12.5-10.133,22.633-22.633,22.633H22.633C10.133,100,0,89.867,0,77.367V22.633
	C0,10.133,10.133,0,22.633,0h454.734C489.867,0,500,10.133,500,22.633V77.367z"/>
<g>
	<path fill="#FFFFFF" d="M333.268,27.588l14.895,44.506h17.567l15.68-44.506c0.062,0-10.271,0-10.332,0l-9.579,28.401
		c-0.591,1.494-2.755,1.338-3.22,0.002c-0.001-0.003-9.021-28.403-9.021-28.403S333.331,27.588,333.268,27.588L333.268,27.588z"/>
	<path fill="#FFFFFF" d="M105,35.249h3.893c2.754,0,3.419,1.425,3.419,4.083v32.693c-0.033,0,15.992,0,15.763,0v-26.71
		c0-4.653,3.227-11.016,8.167-11.016c1.235,0,2.741,1.093,2.204,6.044c0-0.057,13.499-1.595,13.441-1.595
		c0.509-8.812-5.388-13.301-13.177-12.522c-5.575,0.56-9.211,4.465-11.111,9.022h-0.189v-7.596L105,30.212V35.249L105,35.249z"/>
	<path fill="#FFFFFF" d="M428.08,35.249h3.896c2.751,0,3.418,1.425,3.418,4.083v32.693c-0.032,0,15.992,0,15.764,0v-26.71
		c0-4.653,3.227-11.016,8.166-11.016c1.235,0,2.738,1.093,2.205,6.044c0-0.057,13.498-1.595,13.441-1.595
		c0.51-8.812-5.389-13.301-13.179-12.522c-5.575,0.56-9.211,4.465-11.11,9.022h-0.191v-7.596l-22.409,2.559V35.249L428.08,35.249z"
		/>
	<path fill-rule="evenodd" clip-rule="evenodd" fill="#FFFFFF" d="M201.461,52.057c0-14.814-8.64-25.83-24.122-25.83
		c-13.577,0-24.025,8.926-24.025,23.647c0,14.622,7.789,23.643,24.025,23.643c10.257,0,21.367-4.936,22.886-16.333h-11.015
		c-0.855,5.604-6.268,8.167-9.592,8.167c-7.976,0-9.493-6.647-9.493-13.294H201.461L201.461,52.057z M170.313,44.46v-2.469
		c0-4.842,2.566-8.166,7.218-8.166c4.558,0,7.122,3.324,7.122,8.166v2.469H170.313L170.313,44.46z"/>
	<path fill="#FFFFFF" d="M201.153,27.588l14.896,44.506h17.567l15.679-44.506c0.063,0-10.27,0-10.333,0l-9.575,28.401
		c-0.595,1.494-2.758,1.338-3.223,0.002c-0.001-0.003-9.021-28.403-9.021-28.403S201.217,27.588,201.153,27.588L201.153,27.588z"/>
	<path fill-rule="evenodd" clip-rule="evenodd" fill="#FFFFFF" d="M272.989,26.227c-14.147,0-24.499,8.452-24.499,23.647
		c0,15.19,10.352,23.643,24.499,23.643c14.15,0,24.5-8.452,24.5-23.643C297.49,34.679,287.14,26.227,272.989,26.227L272.989,26.227z
		 M272.989,33.825c5.698,0,7.693,4.842,7.693,16.049c0,11.205-1.995,16.047-7.693,16.047c-5.696,0-7.688-4.842-7.688-16.047
		C265.301,38.667,267.293,33.825,272.989,33.825L272.989,33.825z"/>
	<path fill="#FFFFFF" d="M319.006,27.588c0,0-15.684,0-15.764,0v44.438c0.095,0,36.025,0.068,36.025,0.068v-7.598h-16.844
		c-2.753,0-3.418-1.425-3.418-4.082V27.588L319.006,27.588z"/>
	<path fill-rule="evenodd" clip-rule="evenodd" fill="#FFFFFF" d="M428.525,52.057c0-14.814-8.642-25.83-24.119-25.83
		c-13.579,0-24.024,8.926-24.024,23.647c0,14.622,7.786,23.643,24.024,23.643c10.257,0,21.365-4.936,22.887-16.333h-11.018
		c-0.852,5.604-6.266,8.167-9.59,8.167c-7.978,0-9.497-6.647-9.497-13.294H428.525L428.525,52.057z M397.381,44.46v-2.469
		c0-4.842,2.562-8.166,7.215-8.166c4.557,0,7.123,3.324,7.123,8.166v2.469H397.381L397.381,44.46z"/>
</g>
<path fill="#FFFFFF" d="M57.184,64.943c2.143,2.142,5.617,2.142,7.763,0c2.142-2.143,2.142-5.613,0-7.76
	c-1.775-1.772-4.462-2.079-6.551-0.914l-6.292-6.29l6.302-6.302c2.09,1.156,4.771,0.848,6.541-0.922
	c2.142-2.142,2.142-5.616,0-7.761c-2.146-2.142-5.62-2.142-7.765,0c-1.771,1.772-2.078,4.462-0.911,6.552l-6.301,6.297l-6.302-6.301
	c1.162-2.088,0.859-4.777-0.915-6.551c-2.143-2.142-5.617-2.142-7.759,0c-2.145,2.143-2.145,5.617,0,7.76
	c1.77,1.773,4.45,2.079,6.538,0.922l6.304,6.306l-6.293,6.29c-2.089-1.158-4.774-0.858-6.549,0.92c-2.145,2.141-2.145,5.611,0,7.754
	c2.142,2.15,5.616,2.15,7.759,0c1.771-1.771,2.077-4.449,0.922-6.535l6.295-6.295l6.292,6.295
	C55.106,60.494,55.414,63.172,57.184,64.943L57.184,64.943z M49.999,79.965c-8.388,4.961-19.38,3.842-26.595-3.371
	c-7.21-7.209-8.332-18.203-3.367-26.592c-4.965-8.39-3.843-19.383,3.367-26.596c7.215-7.211,18.207-8.336,26.595-3.369
	c8.391-4.967,19.386-3.842,26.595,3.369c7.211,7.213,8.335,18.206,3.371,26.596c4.964,8.389,3.84,19.383-3.371,26.592
	C69.385,83.807,58.39,84.926,49.999,79.965L49.999,79.965z"/>
</svg>
